#Comment line ignore any data following # character 
#Hierarchical Translation and Rotation (.htr) file 
[Header]	
#Header keywords are followed by a single value 
FileType HTR		#Single word string
DataType HTRS		#Translation followed by rotation and scale data
FileVersion 1		#integer
NumSegments 64		#integer
NumFrames 3		#integer
DataFrameRate 30		#integer, data frame rate in this file
EulerRotationOrder ZYX
CalibrationUnits mm
RotationUnits Degrees
GlobalAxisofGravity Y
BoneLengthAxis Y
ScaleFactor 1.00
[SegmentNames&Hierarchy]
#CHILD	PARENT
Pinger_Root GLOBAL
Pelvis Pinger_Root
L_Hip Pelvis
R_Hip Pelvis
Rear_Leg01 Pelvis
Spine1 Pelvis
L_Leg01 L_Hip
L_Leg02 L_Leg01
L_Leg03 L_Leg02
L_Foot L_Leg03
L_Toe1_01 L_Foot
L_Toe2_01 L_Foot
L_Toe3_01 L_Foot
planeAlignerLeft L_Foot
L_Toe1_02 L_Toe1_01
L_Toe1_03 L_Toe1_02
L_Toe2_02 L_Toe2_01
L_Toe2_03 L_Toe2_02
L_Toe3_02 L_Toe3_01
L_Toe3_03 L_Toe3_02
planeLockWeightLeft planeAlignerLeft
R_Leg01 R_Hip
R_Leg02 R_Leg01
R_Leg03 R_Leg02
R_Foot R_Leg03
planeAlignerRight R_Foot
R_Toe1_01 R_Foot
R_Toe2_01 R_Foot
R_Toe3_01 R_Foot
planeLockWeightRight planeAlignerRight
R_Toe1_02 R_Toe1_01
R_Toe1_03 R_Toe1_02
R_Toe2_02 R_Toe2_01
R_Toe2_03 R_Toe2_02
R_Toe3_02 R_Toe3_01
R_Toe3_03 R_Toe3_02
Rear_Leg02 Rear_Leg01
Rear_Leg03 Rear_Leg02
Rear_Leg04 Rear_Leg03
Rear_Foot Rear_Leg04
planeAlignerCenter Rear_Foot
Rear_Toe1_01 Rear_Foot
Rear_Toe2_01 Rear_Foot
Rear_Toe3_01 Rear_Foot
planeLockWeightCenter planeAlignerCenter
Rear_Toe1_02 Rear_Toe1_01
Rear_Toe1_03 Rear_Toe1_02
Rear_Toe2_02 Rear_Toe2_01
Rear_Toe2_03 Rear_Toe2_02
Rear_Toe3_02 Rear_Toe3_01
Rear_Toe3_03 Rear_Toe3_02
Back_Bone Spine1
Head Spine1
Motor_Bone Back_Bone
Ping_Mechanism Back_Bone
BN_LookIK Head
bottomMouth Head
L_Mouth01 Head
L_mouthFront Head
mouthGun Head
R_Mouth01 Head
R_mouthFront Head
TopMouth Head
weapon_bone Head
[BasePosition]
#SegmentName Tx, Ty, Tz, Rx, Ry, Rz, BoneLength
Pinger_Root 0.000000 0.000000 0.000000 -90.000000 0.000000 0.000000 10.000000 
Pelvis 0.000000 0.000000 0.000000 0.000000 0.000000 0.000000 10.000000 
L_Hip 0.000000 0.000000 0.000000 0.000000 0.000000 0.000000 10.000000 
R_Hip 0.000000 0.000000 0.000000 0.000000 0.000000 0.000000 10.000000 
Rear_Leg01 0.000000 0.000000 0.000000 0.000000 0.000000 0.000000 10.000000 
Spine1 0.000000 0.000000 0.000000 0.000000 0.000000 0.000000 10.000000 
L_Leg01 0.000000 0.000000 0.000000 0.000000 0.000000 0.000000 10.000000 
L_Leg02 0.000000 0.000000 0.000000 0.000000 0.000000 0.000000 10.000000 
L_Leg03 0.000000 0.000000 0.000000 0.000000 0.000000 0.000000 10.000000 
L_Foot 0.000000 0.000000 0.000000 0.000000 0.000000 0.000000 10.000000 
L_Toe1_01 0.000000 0.000000 0.000000 0.000000 0.000000 0.000000 10.000000 
L_Toe2_01 0.000000 0.000000 0.000000 0.000000 0.000000 0.000000 10.000000 
L_Toe3_01 0.000000 0.000000 0.000000 0.000000 0.000000 0.000000 10.000000 
planeAlignerLeft 0.000000 0.000000 0.000000 0.000000 0.000000 0.000000 10.000000 
L_Toe1_02 0.000000 0.000000 0.000000 0.000000 0.000000 0.000000 10.000000 
L_Toe1_03 0.000000 0.000000 0.000000 0.000000 0.000000 0.000000 10.000000 
L_Toe2_02 0.000000 0.000000 0.000000 0.000000 0.000000 0.000000 10.000000 
L_Toe2_03 0.000000 0.000000 0.000000 0.000000 0.000000 0.000000 10.000000 
L_Toe3_02 0.000000 0.000000 0.000000 0.000000 0.000000 0.000000 10.000000 
L_Toe3_03 0.000000 0.000000 0.000000 0.000000 0.000000 0.000000 10.000000 
planeLockWeightLeft 0.000000 0.000000 0.000000 0.000000 0.000000 0.000000 10.000000 
R_Leg01 0.000000 0.000000 0.000000 0.000000 0.000000 0.000000 10.000000 
R_Leg02 0.000000 0.000000 0.000000 0.000000 0.000000 0.000000 10.000000 
R_Leg03 0.000000 0.000000 0.000000 0.000000 0.000000 0.000000 10.000000 
R_Foot 0.000000 0.000000 0.000000 0.000000 0.000000 0.000000 10.000000 
planeAlignerRight 0.000000 0.000000 0.000000 0.000000 0.000000 0.000000 10.000000 
R_Toe1_01 0.000000 0.000000 0.000000 0.000000 0.000000 0.000000 10.000000 
R_Toe2_01 0.000000 0.000000 0.000000 0.000000 0.000000 0.000000 10.000000 
R_Toe3_01 0.000000 0.000000 0.000000 0.000000 0.000000 0.000000 10.000000 
planeLockWeightRight 0.000000 0.000000 0.000000 0.000000 0.000000 0.000000 10.000000 
R_Toe1_02 0.000000 0.000000 0.000000 0.000000 0.000000 0.000000 10.000000 
R_Toe1_03 0.000000 0.000000 0.000000 0.000000 0.000000 0.000000 10.000000 
R_Toe2_02 0.000000 0.000000 0.000000 0.000000 0.000000 0.000000 10.000000 
R_Toe2_03 0.000000 0.000000 0.000000 0.000000 0.000000 0.000000 10.000000 
R_Toe3_02 0.000000 0.000000 0.000000 0.000000 0.000000 0.000000 10.000000 
R_Toe3_03 0.000000 0.000000 0.000000 0.000000 0.000000 0.000000 10.000000 
Rear_Leg02 0.000000 0.000000 0.000000 0.000000 0.000000 0.000000 10.000000 
Rear_Leg03 0.000000 0.000000 0.000000 0.000000 0.000000 0.000000 10.000000 
Rear_Leg04 0.000000 0.000000 0.000000 0.000000 0.000000 0.000000 10.000000 
Rear_Foot 0.000000 0.000000 0.000000 0.000000 0.000000 0.000000 10.000000 
planeAlignerCenter 0.000000 0.000000 0.000000 0.000000 0.000000 0.000000 10.000000 
Rear_Toe1_01 0.000000 0.000000 0.000000 0.000000 0.000000 0.000000 10.000000 
Rear_Toe2_01 0.000000 0.000000 0.000000 0.000000 0.000000 0.000000 10.000000 
Rear_Toe3_01 0.000000 0.000000 0.000000 0.000000 0.000000 0.000000 10.000000 
planeLockWeightCenter 0.000000 0.000000 0.000000 0.000000 0.000000 0.000000 10.000000 
Rear_Toe1_02 0.000000 0.000000 0.000000 0.000000 0.000000 0.000000 10.000000 
Rear_Toe1_03 0.000000 0.000000 0.000000 0.000000 0.000000 0.000000 10.000000 
Rear_Toe2_02 0.000000 0.000000 0.000000 0.000000 0.000000 0.000000 10.000000 
Rear_Toe2_03 0.000000 0.000000 0.000000 0.000000 0.000000 0.000000 10.000000 
Rear_Toe3_02 0.000000 0.000000 0.000000 0.000000 0.000000 0.000000 10.000000 
Rear_Toe3_03 0.000000 0.000000 0.000000 0.000000 0.000000 0.000000 10.000000 
Back_Bone 0.000000 0.000000 0.000000 0.000000 0.000000 0.000000 10.000000 
Head 0.000000 0.000000 0.000000 0.000000 0.000000 0.000000 10.000000 
Motor_Bone 0.000000 0.000000 0.000000 0.000000 0.000000 0.000000 10.000000 
Ping_Mechanism 0.000000 0.000000 0.000000 0.000000 0.000000 0.000000 10.000000 
BN_LookIK 0.000000 0.000000 0.000000 0.000000 0.000000 0.000000 10.000000 
bottomMouth 0.000000 0.000000 0.000000 0.000000 0.000000 0.000000 10.000000 
L_Mouth01 0.000000 0.000000 0.000000 0.000000 0.000000 0.000000 10.000000 
L_mouthFront 0.000000 0.000000 0.000000 0.000000 0.000000 0.000000 10.000000 
mouthGun 0.000000 0.000000 0.000000 0.000000 0.000000 0.000000 10.000000 
R_Mouth01 0.000000 0.000000 0.000000 0.000000 0.000000 0.000000 10.000000 
R_mouthFront 0.000000 0.000000 0.000000 0.000000 0.000000 0.000000 10.000000 
TopMouth 0.000000 0.000000 0.000000 0.000000 0.000000 0.000000 10.000000 
weapon_bone 0.000000 0.000000 0.000000 0.000000 0.000000 0.000000 10.000000 
#Beginning of Data. Separated by tabs
#Fr	Tx	Ty	Tz	Rx	Ry	Rz	SF
[Pinger_Root]
18 0.000000 0.000000 0.000000 -0.000075 -0.000000 -0.000020 0.000000
19 0.000000 0.000000 0.000000 -0.000075 -0.000000 -0.000020 0.000000
20 0.000000 0.000000 0.000000 -0.000075 -0.000000 -0.000020 0.000000
[Pelvis]
18 885.669495 509.368195 4353.175781 -45.781174 -81.076836 38.515789 4471.465820
19 891.585876 505.831543 4364.772461 -43.459137 -81.323563 36.165150 4483.528320
20 896.941040 502.677368 4371.039063 -40.211308 -81.652962 32.880131 4490.341797
[L_Hip]
18 5.766392 125.831482 872.656799 160.158691 -45.484905 122.312202 881.701050
19 5.766392 125.831482 872.656799 160.158691 -45.484905 122.312202 881.701050
20 5.766392 125.831482 872.656799 160.158691 -45.484894 122.312202 881.701050
[R_Hip]
18 5.765438 125.836372 -872.654907 38.087841 49.812687 125.703735 881.699829
19 5.765438 125.836372 -872.654907 38.087841 49.812687 125.703735 881.699829
20 5.765438 125.836372 -872.654907 38.087841 49.812687 125.703735 881.699829
[Rear_Leg01]
18 -192.298416 -925.602966 -0.001907 170.483124 -3.384246 -164.943024 945.367432
19 -192.298416 -925.602966 -0.001907 170.491653 -3.379212 -164.404938 945.367432
20 -192.298416 -925.602966 -0.001907 170.500259 -3.374259 -163.866821 945.367432
[Spine1]
18 290.604584 5.007505 0.000477 -12.286688 13.292092 -0.053278 290.647736
19 290.604584 5.007505 0.000477 -12.265587 13.304361 -0.009290 290.647736
20 290.604584 5.007505 0.000477 -12.244475 13.316616 0.034703 290.647736
[L_Leg01]
18 761.932007 -0.002384 -0.069261 25.122169 -9.342684 -26.931158 761.932068
19 761.932007 -0.002384 -0.069261 25.506596 -8.750656 -28.355906 761.932068
20 761.932007 -0.002384 -0.069261 25.888247 -8.177155 -29.541508 761.932068
[L_Leg02]
18 1441.140503 -0.000954 -0.000715 -1.166425 0.160856 -85.775925 1441.140503
19 1441.140503 -0.000954 -0.000715 -1.257765 0.188286 -83.914650 1441.140503
20 1441.140503 -0.000954 -0.000715 -1.311723 0.199955 -82.546005 1441.140503
[L_Leg03]
18 1686.963989 -0.000715 -0.000954 -0.002527 0.002252 111.198601 1686.963989
19 1686.963989 -0.000715 -0.000954 -0.000506 0.003646 110.593201 1686.963989
20 1686.963989 -0.000715 -0.000954 0.000896 0.001616 110.219376 1686.963989
[L_Foot]
18 3041.570068 -30.715107 11.297464 -7.296816 12.762297 35.424194 3041.746094
19 3041.570068 -30.715107 11.297464 -7.300068 12.753294 35.190830 3041.746094
20 3041.570068 -30.715107 11.297464 -7.303281 12.744275 34.957474 3041.746094
[L_Toe1_01]
18 -188.216690 -224.732346 -21.137953 93.622231 -4.100680 -170.904816 293.899567
19 -188.216690 -224.732346 -21.137953 93.633606 -4.014631 -171.084198 293.899567
20 -188.216690 -224.732346 -21.137953 93.635017 -4.006870 -171.102051 293.899567
[L_Toe2_01]
18 200.746536 -219.926590 148.838394 -90.628746 -22.707003 -53.780220 332.896027
19 200.746536 -219.926590 148.838394 -90.720413 -22.646971 -53.594875 332.896027
20 200.746536 -219.926590 148.838394 -90.730911 -22.642977 -53.572235 332.896027
[L_Toe3_01]
18 188.832520 -219.859131 -191.078659 -101.489960 15.902177 -71.251610 347.140900
19 188.832520 -219.859131 -191.078659 -101.514427 16.027372 -71.133118 347.140900
20 188.832520 -219.859131 -191.078659 -101.516129 16.039503 -71.116959 347.140900
[planeAlignerLeft]
18 0.812531 -811.448792 -0.314951 0.000000 -90.000000 -90.001900 811.449280
19 0.812531 -811.448792 -0.314951 0.000000 -90.000000 -90.001900 811.449280
20 0.812531 -811.448792 -0.314951 0.000000 -90.000000 -90.001900 811.449280
[L_Toe1_02]
18 413.761139 0.000477 0.000000 0.000203 -25.410625 -0.000182 413.761139
19 413.761139 0.000477 0.000000 0.000203 -25.410625 -0.000182 413.761139
20 413.761139 0.000477 0.000000 0.000203 -25.410625 -0.000182 413.761139
[L_Toe1_03]
18 464.317322 0.000358 -0.000089 0.003958 55.500237 0.003958 464.317322
19 464.317322 0.000358 -0.000089 0.003965 55.568493 0.003965 464.317322
20 464.317322 0.000358 -0.000089 0.003973 55.636730 0.003973 464.317322
[L_Toe2_02]
18 342.235809 -0.000477 0.000238 0.001188 -72.224480 0.001188 342.235809
19 342.235809 -0.000477 0.000238 0.001188 -72.316307 0.001188 342.235809
20 342.235809 -0.000477 0.000238 0.001188 -72.408127 0.001188 342.235809
[L_Toe2_03]
18 420.210846 -0.000715 0.000000 0.027606 85.126808 0.027606 420.210846
19 420.210846 -0.000715 0.000000 0.028120 85.215904 0.028120 420.210846
20 420.210846 -0.000715 0.000000 0.028653 85.304977 0.028653 420.210846
[L_Toe3_02]
18 329.270111 0.000954 0.000000 0.001180 -78.015030 0.001180 329.270111
19 329.270111 0.000954 0.000000 0.001180 -78.028061 0.001180 329.270111
20 329.270111 0.000954 0.000000 0.001180 -78.041107 0.001180 329.270111
[L_Toe3_03]
18 439.137451 -0.001907 0.000954 -179.978622 87.151329 -179.975128 439.137451
19 439.137451 -0.001907 0.000954 -179.979675 87.014694 -179.976181 439.137451
20 439.137451 -0.001907 0.000954 -179.979797 86.998993 -179.976303 439.137451
[planeLockWeightLeft]
18 -0.000954 0.000238 -0.000305 -0.011826 -0.004376 0.005620 0.001029
19 -0.000954 0.000238 -0.000305 -0.011826 -0.004376 0.005620 0.001029
20 -0.000954 0.000238 -0.000305 -0.011826 -0.004376 0.005620 0.001029
[R_Leg01]
18 761.455627 -0.001907 -0.000358 124.015213 -24.567173 26.067379 761.455688
19 761.455627 -0.001907 -0.000358 123.653908 -23.984598 26.704195 761.455688
20 761.455627 -0.001907 -0.000358 123.248322 -23.381954 27.355127 761.455688
[R_Leg02]
18 1441.140625 0.000000 -0.000238 -2.108970 -0.605871 -140.827301 1441.140625
19 1441.140625 0.000000 -0.000238 -2.085944 -0.592464 -140.146484 1441.140625
20 1441.140625 0.000000 -0.000238 -2.062759 -0.579331 -139.465668 1441.140625
[R_Leg03]
18 1686.963989 0.000954 0.001431 0.095384 -0.056325 136.611725 1686.963989
19 1686.963989 0.000954 0.001431 0.094654 -0.055857 136.463425 1686.963989
20 1686.963989 0.000954 0.001431 0.093922 -0.055390 136.315125 1686.963989
[R_Foot]
18 3041.560059 -30.531288 -11.204481 -10.405972 -24.145315 60.213631 3041.734131
19 3041.560059 -30.531288 -11.204481 -10.535494 -24.166073 60.122814 3041.734131
20 3041.560059 -30.531288 -11.204481 -10.665001 -24.187023 60.032043 3041.734131
[planeAlignerRight]
18 -0.635147 -812.270569 -0.364304 0.000000 -89.960434 -90.005180 812.270874
19 -0.635147 -812.270569 -0.364304 0.000000 -89.960434 -90.005180 812.270874
20 -0.635147 -812.270569 -0.364304 0.000000 -89.960434 -90.005180 812.270874
[R_Toe1_01]
18 -188.383347 -224.864899 21.052242 77.236214 9.168902 -169.896317 294.101532
19 -188.383347 -224.864899 21.052242 77.247711 9.222273 -169.705994 294.101532
20 -188.383347 -224.864899 21.052242 77.238380 9.168858 -169.841507 294.101532
[R_Toe2_01]
18 200.637817 -220.002121 -148.787384 -96.722168 44.434441 -61.027748 332.857574
19 200.637817 -220.002121 -148.787384 -96.835968 44.399376 -61.240406 332.857574
20 200.637817 -220.002121 -148.787384 -96.743500 44.397129 -61.089390 332.857574
[R_Toe3_01]
18 188.606735 -220.092957 191.126343 -76.641769 -2.804899 -67.010132 347.192566
19 188.606735 -220.092957 191.126343 -76.657219 -2.725532 -67.225838 347.192566
20 188.606735 -220.092957 191.126343 -76.641304 -2.797336 -67.098846 347.192566
[planeLockWeightRight]
18 -0.000477 0.000000 0.000000 -0.011823 -0.004379 -0.000027 0.000477
19 -0.000477 0.000000 0.000000 -0.011823 -0.004379 -0.000027 0.000477
20 -0.000477 0.000000 0.000000 -0.011823 -0.004379 -0.000027 0.000477
[R_Toe1_02]
18 413.762085 0.000477 -0.000119 0.001390 -25.179201 0.001390 413.762085
19 413.762085 0.000477 -0.000119 0.001391 -25.059568 0.001391 413.762085
20 413.762085 0.000477 -0.000119 0.001391 -25.100109 0.001391 413.762085
[R_Toe1_03]
18 464.317810 0.000000 0.001088 0.002867 41.671471 0.002867 464.317810
19 464.317810 0.000000 0.001088 0.000526 41.285404 -0.003313 464.317810
20 464.317810 0.000000 0.001088 0.000519 41.475731 -0.003316 464.317810
[R_Toe2_02]
18 342.234741 -0.000954 0.000238 0.001193 -69.503868 0.001193 342.234741
19 342.234741 -0.000954 0.000238 0.001193 -69.312531 0.001193 342.234741
20 342.234741 -0.000954 0.000238 0.001193 -69.376740 0.001193 342.234741
[R_Toe2_03]
18 420.210846 0.000715 -0.000268 0.011520 78.305634 0.011520 420.210846
19 420.210846 0.000715 -0.000268 0.011275 78.050789 0.011275 420.210846
20 420.210846 0.000715 -0.000268 0.011452 78.235733 0.011452 420.210846
[R_Toe3_02]
18 329.270355 -0.000477 -0.000954 0.001176 -83.077629 0.001176 329.270355
19 329.270355 -0.000477 -0.000954 0.001176 -83.064407 0.001176 329.270355
20 329.270355 -0.000477 -0.000954 0.001176 -83.051239 0.001176 329.270355
[R_Toe3_03]
18 439.137939 0.000238 0.001431 -179.999008 66.135941 -179.995438 439.137939
19 439.137939 0.000238 0.001431 -179.998978 66.383972 -179.995407 439.137939
20 439.137939 0.000238 0.001431 -179.998993 66.277779 -179.995422 439.137939
[Rear_Leg02]
18 1162.777710 -0.029802 0.005960 1.200303 -2.730661 -135.569504 1162.777710
19 1162.777710 -0.029802 0.005960 1.198136 -2.731612 -135.478592 1162.777710
20 1162.777710 -0.029802 0.005960 1.208516 -2.727157 -135.710983 1162.777710
[Rear_Leg03]
18 607.192505 -0.013351 -0.073195 0.010475 -0.005142 68.644539 607.192505
19 607.192505 -0.013351 -0.073195 0.010478 -0.005134 68.560692 607.192505
20 607.192505 -0.013351 -0.073195 0.010476 -0.005139 68.611633 607.192505
[Rear_Leg04]
18 995.874512 -0.020504 -0.011921 -0.040190 -0.018809 67.201508 995.874573
19 995.874512 -0.020504 -0.011921 -0.040195 -0.018799 67.231201 995.874573
20 995.874512 -0.020504 -0.011921 -0.040199 -0.018788 67.260887 995.874573
[Rear_Foot]
18 3096.176270 -0.067472 -0.041425 -169.625229 75.254410 17.328184 3096.176270
19 3096.176270 -0.067472 -0.041425 -169.637619 75.217606 17.195959 3096.176270
20 3096.176270 -0.067472 -0.041425 -169.675797 75.161827 17.145084 3096.176270
[planeAlignerCenter]
18 0.350077 0.966311 -838.790894 0.000009 0.000003 -179.999985 838.791565
19 0.350077 0.966311 -838.790894 0.000009 0.000003 -179.999985 838.791565
20 0.350077 0.966311 -838.790894 0.000009 0.000003 -179.999985 838.791565
[Rear_Toe1_01]
18 0.653352 83.966492 -371.173737 0.288091 41.914127 90.413170 380.553192
19 0.653352 83.966492 -371.173737 0.288095 41.914139 90.413193 380.553192
20 0.653352 83.966492 -371.173737 0.288091 41.914127 90.413170 380.553192
[Rear_Toe2_01]
18 178.200760 -294.826019 -362.060547 -7.196267 34.406261 -66.271294 499.765686
19 178.200760 -294.826019 -362.060547 -7.196268 34.406261 -66.271294 499.765686
20 178.200760 -294.826019 -362.060547 -7.196267 34.406261 -66.271294 499.765686
[Rear_Toe3_01]
18 -153.359680 -308.780914 -362.060852 3.289418 33.518005 -112.540970 499.952881
19 -153.359680 -308.780914 -362.060852 3.289418 33.518005 -112.540970 499.952881
20 -153.359680 -308.780914 -362.060852 3.289418 33.518005 -112.540970 499.952881
[planeLockWeightCenter]
18 -0.000062 0.000238 0.000000 -0.011814 -0.004373 -0.000015 0.000246
19 -0.000062 0.000238 0.000000 -0.011814 -0.004373 -0.000015 0.000246
20 -0.000062 0.000238 0.000000 -0.011814 -0.004373 -0.000015 0.000246
[Rear_Toe1_02]
18 379.707825 0.194073 0.000477 -0.000242 -31.676744 0.006934 379.707855
19 379.707825 0.194073 0.000477 -0.000242 -31.676744 0.006934 379.707855
20 379.707825 0.194073 0.000477 -0.000242 -31.676744 0.006934 379.707855
[Rear_Toe1_03]
18 500.129700 0.165701 0.000119 -0.000103 51.902466 0.007295 500.129761
19 500.129700 0.165701 0.000119 -0.000103 51.902481 0.007295 500.129761
20 500.129700 0.165701 0.000119 -0.000103 51.902481 0.007295 500.129761
[Rear_Toe2_02]
18 340.494507 0.000238 -0.000954 0.001192 -69.854523 0.001192 340.494507
19 340.494507 0.000238 -0.000954 0.001192 -69.854523 0.001192 340.494507
20 340.494507 0.000238 -0.000954 0.001192 -69.854523 0.001192 340.494507
[Rear_Toe2_03]
18 433.103577 0.000000 0.000238 0.006696 69.810303 0.006696 433.103546
19 433.103577 0.000000 0.000238 0.006696 69.810341 0.006696 433.103546
20 433.103577 0.000000 0.000238 0.006696 69.810326 0.006696 433.103546
[Rear_Toe3_02]
18 340.494141 -0.000358 -0.000477 0.008288 -67.274704 -0.009460 340.494171
19 340.494141 -0.000358 -0.000477 0.008288 -67.274704 -0.009460 340.494171
20 340.494141 -0.000358 -0.000477 0.008288 -67.274704 -0.009460 340.494171
[Rear_Toe3_03]
18 433.103577 0.001431 -0.000238 -0.000972 65.958984 -0.004547 433.103546
19 433.103577 0.001431 -0.000238 -0.000972 65.958984 -0.004547 433.103546
20 433.103577 0.001431 -0.000238 -0.000972 65.958961 -0.004547 433.103546
[Back_Bone]
18 1312.175781 -701.934692 0.000954 0.000023 -0.000007 -85.606667 1488.125488
19 1312.175781 -701.934692 0.000954 0.000023 -0.000007 -85.606667 1488.125488
20 1312.175781 -701.934692 0.000954 0.000023 -0.000007 -85.606667 1488.125488
[Head]
18 1406.159424 809.709290 0.001431 -0.234209 -2.351306 9.296729 1622.625488
19 1406.159424 809.709290 0.001431 -0.534515 -3.092407 10.991673 1622.625488
20 1406.159424 809.709290 0.001431 -0.751261 -3.393016 11.447882 1622.625488
[Motor_Bone]
18 1158.364380 -417.834747 0.000477 -0.000105 0.000046 -105.985291 1231.419434
19 1158.364380 -417.834747 0.000477 -0.000105 0.000046 -105.985291 1231.419434
20 1158.364380 -417.834747 0.000477 -0.000105 0.000046 -105.985291 1231.419434
[Ping_Mechanism]
18 1215.237793 -433.297150 0.000954 0.000103 -0.000053 82.120995 1290.174072
19 1215.237793 -433.297150 0.000954 0.000103 -0.000053 82.120995 1290.174072
20 1215.237793 -433.297150 0.000954 0.000103 -0.000053 82.120995 1290.174072
[BN_LookIK]
18 193.241119 1380.371704 -0.002861 0.000000 89.965736 -31.038179 1393.832153
19 193.241119 1380.371704 -0.002861 0.000000 89.965736 -31.038179 1393.832153
20 193.241119 1380.371704 -0.002861 0.000000 89.965736 -31.038179 1393.832153
[bottomMouth]
18 -435.092926 615.759399 -0.000954 -0.000022 0.000016 73.527184 753.966492
19 -435.092926 615.759399 -0.000954 -0.000022 0.000016 73.527184 753.966492
20 -435.092926 615.759399 -0.000954 -0.000022 0.000016 73.527184 753.966492
[L_Mouth01]
18 554.440979 7.658243 838.222046 150.204178 23.759130 109.605339 1005.027161
19 554.440979 7.658243 838.222046 150.204178 23.759130 109.605339 1005.027161
20 554.440979 7.658243 838.222046 150.204178 23.759130 109.605339 1005.027161
[L_mouthFront]
18 551.629089 934.514771 339.150421 0.000081 2.804060 79.119301 1136.941284
19 551.629089 934.514771 339.150421 0.000081 2.804060 79.119301 1136.941284
20 551.629089 934.514771 339.150421 0.000081 2.804060 79.119301 1136.941284
[mouthGun]
18 55.332661 1627.420898 0.000000 0.000023 0.000009 -11.038128 1628.361328
19 55.332661 1627.420898 0.000000 0.000023 0.000009 -11.038128 1628.361328
20 55.332661 1627.420898 0.000000 0.000023 0.000009 -11.038128 1628.361328
[R_Mouth01]
18 554.442383 7.659197 -838.223938 29.795891 -23.759109 109.605331 1005.029541
19 554.442383 7.659197 -838.223938 29.795891 -23.759109 109.605331 1005.029541
20 554.442383 7.659197 -838.223938 29.795891 -23.759109 109.605331 1005.029541
[R_mouthFront]
18 551.629089 934.514282 -339.151367 0.000029 -2.803930 79.119133 1136.941162
19 551.629089 934.514282 -339.151367 0.000029 -2.803930 79.119133 1136.941162
20 551.629089 934.514282 -339.151367 0.000029 -2.803930 79.119133 1136.941162
[TopMouth]
18 461.269867 -56.106091 -0.008583 -0.000059 -0.000268 92.025169 464.669525
19 461.269867 -56.106091 -0.008583 -0.000059 -0.000268 92.025169 464.669525
20 461.269867 -56.106091 -0.008583 -0.000059 -0.000268 92.025169 464.669525
[weapon_bone]
18 -987.239868 1448.372803 0.001431 0.000000 89.965736 -31.038221 1752.833740
19 -987.239868 1448.372803 0.001431 0.000000 89.965736 -31.038221 1752.833740
20 -987.239868 1448.372803 0.001431 0.000000 89.965736 -31.038221 1752.833740
